<svg xmlns="http://www.w3.org/2000/svg" viewBox="0 0 410 404">
  <defs>
    <linearGradient x1="0%" y1="0%" x2="50%" y2="100%" id="linearGradient-1">
      <stop stop-color="#646CFF" offset="0%"></stop>
      <stop stop-color="#343CFF" offset="100%"></stop>
    </linearGradient>
    <linearGradient x1="60%" y1="0%" x2="100%" y2="100%" id="linearGradient-2">
      <stop stop-color="#FFEA83" offset="0%"></stop>
      <stop stop-color="#FFDD35" offset="8.333%"></stop>
      <stop stop-color="#FFA800" offset="100%"></stop>
    </linearGradient>
  </defs>
  <g fill="none">
    <path
      d="M399.641 59.525L215.723 388.836c-3.888 6.982-13.974 6.593-17.347-.681L9.272 59.446c-4.211-7.873 2.966-16.834 11.502-14.88l187.996 33.544a9.6 9.6 0 0 0 3.436-.005l176.833-33.483c8.514-1.612 15.278 7.306 11.135 15.157z"
      fill="url(#linearGradient-1)"
    ></path>
    <path
      d="M292.965.006L156.789 27.104a4.8 4.8 0 0 0-3.842 4.826l8.16 173.934a4.8 4.8 0 0 0 5.64 4.442l38.358-6.74c3.104-.545 5.882 2.03 5.236 5.128l-11.386 55.718c-.697 3.408 2.286 6.413 5.66 5.74l23.681-4.882c3.38-.696 6.365 2.34 5.644 5.723l-18.053 85.274c-.926 4.377 4.643 7.186 7.61 3.62l1.262-1.523 111.4-222.541c1.552-3.098-.88-6.695-4.353-6.029l-39.33 7.353c-3.387.634-6.305-2.443-5.53-5.788L301.8 4.882C302.57 1.54 299.71-1.245 296.392-.62L292.965.006z"
      fill="url(#linearGradient-2)"
    ></path>
  </g>
</svg>

